<svg xmlns="http://www.w3.org/2000/svg" viewBox="0 0 192 192" width="192" height="192">
  <rect width="192" height="192" rx="32" fill="#1a1a2e"/>
  <rect x="48" y="32" width="64" height="80" rx="6" fill="none" stroke="#e94560" stroke-width="6"/>
  <path d="M72 32V20a6 6 0 0 1 6-6h36a6 6 0 0 1 4.24 1.76l20 20A6 6 0 0 1 140 40v72a6 6 0 0 1-6 6H112" fill="none" stroke="#e94560" stroke-width="6"/>
  <path d="M120 14v26h26" fill="none" stroke="#e94560" stroke-width="6"/>
  <line x1="64" y1="60" x2="96" y2="60" stroke="#e94560" stroke-width="4" stroke-linecap="round"/>
  <line x1="64" y1="74" x2="96" y2="74" stroke="#e94560" stroke-width="4" stroke-linecap="round"/>
  <line x1="64" y1="88" x2="84" y2="88" stroke="#e94560" stroke-width="4" stroke-linecap="round"/>
  <!-- Speaker icon -->
  <g transform="translate(72, 130)">
    <path d="M0 12v16h12l16 16V-4L12 12H0z" fill="#e94560"/>
    <path d="M38 8a16 16 0 0 1 0 24" fill="none" stroke="#e94560" stroke-width="5" stroke-linecap="round"/>
    <path d="M46 0a28 28 0 0 1 0 40" fill="none" stroke="#e94560" stroke-width="5" stroke-linecap="round"/>
  </g>
</svg>
